Coordinates
version=1
nRows=25
nColumns=33
inDegrees=yes

Units are S.I. units (second, meters, Newtons, ...)
Angles are in degrees.

endheader
time	ground_thorax_rot_x	ground_thorax_rot_y	ground_thorax_rot_z	ground_thorax_tx	ground_thorax_ty	ground_thorax_tz	clav_prot_r	clav_elev_r	scapula_abduction_r	scapula_elevation_r	scapula_upward_rot_r	scapula_winging_r	shoulder_elv_r	plane_of_elev_r	axial_rot_r	elbow_flexion_r	pro_sup_r	wrist_flex_r	wrist_dev_r	clav_prot_l	clav_elev_l	scapula_abduction_l	scapula_elevation_l	scapula_upward_rot_l	scapula_winging_l	shoulder_elv_l	plane_of_elev_l	axial_rot_l	elbow_flexion_l	pro_sup_l	wrist_flex_l	wrist_dev_l	
4.7500	30.808886	24.203130	35.093286	-118.734469	869.162259	-45.933657	12.261716	33.986217	27.771777	45.000000	-45.000000	2428.516317	795.193327	21.822409	-158.981117	3598.913222	157.745598	15.349390	14.614307	-4.725865	-45.000000	-41.791865	45.000000	-45.000000	2626.970996	-3879.769153	24.686416	22.699601	349.433437	39.386646	14.271022	-21.654080	
4.7600	30.736793	24.270571	35.225612	-118.647596	868.705469	-45.835025	12.330246	33.969305	27.751095	45.000000	-45.000000	2428.588858	795.158193	21.786674	-158.995482	3598.925851	158.390783	15.548140	14.544721	-4.783792	-45.000000	-41.704636	45.000000	-45.000000	2626.959216	-3879.780821	24.653826	22.646324	349.413125	39.566621	14.147897	-21.822957	
4.7700	30.672816	24.333636	35.349300	-118.536271	868.206518	-45.739616	12.456193	33.943932	27.754661	45.000000	-45.000000	2428.663493	795.116927	21.740842	-159.002020	3598.946407	159.016524	15.771034	14.468859	-4.848009	-45.000000	-41.612460	45.000000	-45.000000	2626.934046	-3879.798580	24.632297	22.601911	349.373840	39.745511	14.005009	-22.001044	
4.7800	30.603852	24.415242	35.475914	-118.375446	867.603940	-45.650980	12.512954	33.926709	27.731178	45.000000	-45.000000	2428.734528	795.075219	21.709580	-159.044689	3598.959269	159.604465	15.949733	14.420058	-4.895159	-45.000000	-41.541826	45.000000	-45.000000	2626.920311	-3879.834886	24.598732	22.505849	349.375944	39.935219	13.880868	-22.164250	
4.7900	30.533769	24.513332	35.604593	-118.160111	866.908480	-45.568449	12.546544	33.915759	27.696491	45.000000	-45.000000	2428.801769	795.034625	21.686395	-159.107711	3598.971208	160.151472	16.094734	14.385675	-4.937754	-45.000000	-41.482434	45.000000	-45.000000	2626.903825	-3879.880497	24.560931	22.387940	349.396968	40.128818	13.769458	-22.308737	
4.8000	30.468946	24.618748	35.726516	-117.882998	866.125497	-45.491232	12.572706	33.895229	27.659407	45.000000	-45.000000	2428.866606	794.988435	21.670947	-159.194724	3598.989858	160.637292	16.246337	14.352128	-4.967505	-45.000000	-41.425932	45.000000	-45.000000	2626.884726	-3879.933606	24.530598	22.255974	349.425325	40.311659	13.653928	-22.447662	
4.8100	30.401653	24.735500	35.854905	-117.543366	865.281759	-45.416874	12.593098	33.883404	27.618484	45.000000	-45.000000	2428.927042	794.943956	21.663865	-159.293995	3599.004516	161.061417	16.360178	14.329326	-4.999019	-45.000000	-41.377130	45.000000	-45.000000	2626.859690	-3879.982096	24.499033	22.133132	349.461590	40.476298	13.556178	-22.556727	
4.8200	30.342848	24.845145	35.975319	-117.143420	864.412699	-45.341886	12.630382	33.861423	27.595078	45.000000	-45.000000	2428.986234	794.891829	21.659527	-159.401776	3599.028445	161.405449	16.495541	14.302152	-5.022773	-45.000000	-41.326671	45.000000	-45.000000	2626.830361	-3880.026569	24.483371	22.039743	349.486595	40.601133	13.452723	-22.660618	
4.8300	30.281328	24.956576	36.101520	-116.685113	863.552133	-45.262518	12.666276	33.851239	27.573247	45.000000	-45.000000	2429.039774	794.842370	21.664131	-159.510396	3599.039217	161.675937	16.579427	14.287810	-5.051881	-45.000000	-41.289824	45.000000	-45.000000	2626.794192	-3880.059628	24.466857	21.987630	349.516759	40.684475	13.376466	-22.726607	
4.8400	30.230095	25.054545	36.214418	-116.168442	862.730026	-45.175089	12.708483	33.838785	27.570516	45.000000	-45.000000	2429.090035	794.787004	21.670681	-159.617895	3599.048985	161.859711	16.670707	14.282723	-5.074301	-45.000000	-41.259444	45.000000	-45.000000	2626.755982	-3880.090182	24.468679	21.986951	349.537377	40.712025	13.305489	-22.786439	
4.8500	30.179278	25.153494	36.331134	-115.590562	861.971006	-45.076346	12.746313	33.840650	27.576241	45.000000	-45.000000	2429.133520	794.734416	21.678103	-159.715735	3599.044488	161.971996	16.702993	14.295284	-5.100126	-45.000000	-41.242620	45.000000	-45.000000	2626.710411	-3880.113499	24.473215	22.045847	349.558590	40.693779	13.269371	-22.808794	
4.8600	30.140291	25.242848	36.438043	-114.945114	861.292535	-44.963731	12.781178	33.840278	27.609938	45.000000	-45.000000	2429.174741	794.675160	21.676485	-159.806252	3599.050637	162.006624	16.748706	14.315307	-5.114700	-45.000000	-41.227365	45.000000	-45.000000	2626.663777	-3880.139627	24.499961	22.167058	349.563813	40.625091	13.240723	-22.831625	
4.8700	30.098461	25.336593	36.556425	-114.222754	860.704650	-44.835776	12.812461	33.843364	27.652979	45.000000	-45.000000	2429.214028	794.619545	21.672733	-159.888208	3599.053008	161.981872	16.745118	14.338969	-5.127030	-45.000000	-41.218282	45.000000	-45.000000	2626.607338	-3880.159123	24.529407	22.347875	349.568442	40.522334	13.240210	-22.821740	
4.8800	30.065884	25.422491	36.670394	-113.411940	860.209617	-44.692222	12.835065	33.844275	27.722028	45.000000	-45.000000	2429.255734	794.563924	21.661035	-159.966844	3599.065791	161.893528	16.762031	14.371576	-5.127537	-45.000000	-41.208483	45.000000	-45.000000	2626.549617	-3880.186004	24.580611	22.586349	349.561010	40.384163	13.244342	-22.818408	
4.8900	30.030003	25.511944	36.794790	-112.500389	859.802443	-44.534006	12.849671	33.846503	27.794831	45.000000	-45.000000	2429.299617	794.516140	21.653544	-160.048139	3599.067930	161.757524	16.737411	14.407846	-5.126395	-45.000000	-41.198774	45.000000	-45.000000	2626.478291	-3880.210418	24.637409	22.878667	349.557962	40.227511	13.271834	-22.788207	
4.9000	29.994256	25.599865	36.920482	-111.476226	859.471648	-44.362975	12.848670	33.845962	27.875545	45.000000	-45.000000	2429.351290	794.473994	21.648420	-160.144426	3599.068512	161.572240	16.718284	14.456695	-5.118923	-45.000000	-41.191664	45.000000	-45.000000	2626.398558	-3880.242008	24.712349	23.223622	349.553716	40.052809	13.304598	-22.760066	
4.9100	29.943888	25.697630	37.063184	-110.329180	859.200769	-44.181533	12.835413	33.844542	27.946141	45.000000	-45.000000	2429.411169	794.440720	21.654192	-160.263570	3599.051495	161.353638	16.648443	14.513925	-5.112817	-45.000000	-41.193556	45.000000	-45.000000	2626.301693	-3880.270557	24.789509	23.619394	349.564233	39.875591	13.357667	-22.704246	
4.9200	29.886472	25.799865	37.214749	-109.051076	858.969680	-43.992259	12.805571	33.840641	28.023748	45.000000	-45.000000	2429.480751	794.408640	21.661062	-160.413612	3599.031309	161.101928	16.583624	14.585228	-5.101323	-45.000000	-41.203868	45.000000	-45.000000	2626.197973	-3880.307720	24.881943	24.067505	349.578794	39.697343	13.415109	-22.650156	
4.9300	29.809863	25.914802	37.393727	-107.636025	858.756343	-43.797655	12.770115	33.835383	28.101767	45.000000	-45.000000	2429.559486	794.373498	21.671588	-160.595752	3599.003805	160.831233	16.491917	14.657431	-5.090629	-45.000000	-41.214867	45.000000	-45.000000	2626.083771	-3880.338253	24.979380	24.564441	349.599812	39.532604	13.485522	-22.576384	
4.9400	29.715071	26.039646	37.602786	-106.080291	858.538304	-43.600052	12.729679	33.831335	28.191968	45.000000	-45.000000	2429.648739	794.330793	21.679622	-160.811397	3598.980925	160.548823	16.402597	14.735466	-5.077711	-45.000000	-41.229990	45.000000	-45.000000	2625.969901	-3880.368842	25.085737	25.109565	349.620167	39.386184	13.559677	-22.499235	
4.9500	29.607267	26.170362	37.837794	-104.382087	858.294224	-43.401618	12.699393	33.833252	28.295310	45.000000	-45.000000	2429.740726	794.279800	21.696144	-161.054008	3598.957430	160.268679	16.300498	14.812631	-5.070584	-45.000000	-41.234902	45.000000	-45.000000	2625.852000	-3880.395007	25.201929	25.700154	349.642637	39.268201	13.642232	-22.409885	
4.9600	29.499131	26.299768	38.085113	-102.541623	858.005083	-43.204442	12.682439	33.843616	28.416745	45.000000	-45.000000	2429.831233	794.221282	21.725176	-161.321996	3598.934593	159.997649	16.207520	14.893876	-5.070898	-45.000000	-41.221970	45.000000	-45.000000	2625.731749	-3880.424926	25.336763	26.332306	349.660942	39.183239	13.728556	-22.320917	
4.9700	29.394015	26.428507	38.338338	-100.560616	857.654915	-43.010451	12.689777	33.866478	28.546816	45.000000	-45.000000	2429.914314	794.154497	21.776651	-161.613993	3598.905719	159.744794	16.107431	14.974392	-5.091224	-45.000000	-41.182366	45.000000	-45.000000	2625.599021	-3880.453375	25.489714	27.000915	349.675696	39.138201	13.821996	-22.223990	
4.9800	29.283126	26.564376	38.608305	-98.442268	857.231175	-42.821310	12.697034	33.887025	28.674271	45.000000	-45.000000	2430.004782	794.087537	21.837223	-161.941199	3598.873164	159.515290	16.000079	15.060928	-5.115200	-45.000000	-41.135038	45.000000	-45.000000	2625.458240	-3880.485289	25.650405	27.697163	349.693751	39.134381	13.919885	-22.118254	
4.9900	29.171137	26.706828	38.889237	-96.190879	856.724646	-42.638172	12.719252	33.913689	28.802110	45.000000	-45.000000	2430.096407	794.015179	21.909358	-162.300100	3598.840118	159.313624	15.884091	15.150147	-5.155778	-45.000000	-41.075867	45.000000	-45.000000	2625.304592	-3880.518953	25.818952	28.415645	349.711766	39.174653	14.021309	-22.002205	
